# xmcd CD database file
#
# Track frame offsets:
#	150
#	25763
#	53049
#	92130
#	107523
#	130221
#	169786
#	209532
#	228557
#	254878
#
# Disc length: 3735 seconds
#
# Revision: 0
# Processed by: cddbd v1.5.2PL0 Copyright (c) Steve Scherf et al.
# Submitted via: CDex 1.70beta2
#
DISCID=8a0e950a
DTITLE=Kermit Driscoll - Reveille
DYEAR=2010
DGENRE=Jazz
TTITLE0=Boomstatz
TTITLE1=Thank You
TTITLE2=For Hearts
TTITLE3=Chicken Reel
TTITLE4=Ire
TTITLE5=Hekete
TTITLE6=Great Expectations
TTITLE7=Farm Life
TTITLE8=Martin Sklar
TTITLE9=Reveille
EXTD=YEAR: 2010
EXTT0=
EXTT1=
EXTT2=
EXTT3=
EXTT4=
EXTT5=
EXTT6=
EXTT7=
EXTT8=
EXTT9=
PLAYORDER=
